<svg xmlns="http://www.w3.org/2000/svg" xmlns:xlink="http://www.w3.org/1999/xlink" width="816" zoomAndPan="magnify" viewBox="0 0 612 791.999994" height="1056" preserveAspectRatio="xMidYMid meet" version="1.0"><path fill="#fff8eb" d="M 150.097656 250.328125 C 186.9375 258.308594 228.777344 272.945312 240.089844 299.511719 C 240.894531 301.363281 241.5 303.277344 241.898438 305.257812 C 242.300781 307.234375 242.488281 309.234375 242.460938 311.253906 C 242.4375 313.273438 242.199219 315.269531 241.753906 317.238281 C 241.304688 319.207031 240.652344 321.109375 239.800781 322.9375 C 238.855469 324.980469 237.699219 326.898438 236.335938 328.6875 C 222.574219 347.28125 190.246094 355.300781 169.117188 360.933594 C 117.332031 374.738281 0.0351562 378.441406 4.167969 296.117188 C 6.835938 242.96875 64.347656 238.039062 105.839844 243.023438 C 117.214844 244.390625 133.125 246.652344 150.097656 250.328125 Z M 150.097656 250.328125 " fill-opacity="1" fill-rule="nonzero"/><path fill="#1a1715" d="M 0.394531 300.316406 C 0.394531 298.875 0.429688 297.414062 0.507812 295.933594 C 1.359375 278.898438 7.664062 265.3125 19.246094 255.546875 C 43.289062 235.273438 84.09375 236.71875 106.277344 239.382812 C 122.074219 241.28125 137.078125 243.757812 150.871094 246.746094 C 202.578125 257.941406 233.730469 275.210938 243.460938 298.074219 C 244.363281 300.15625 245.039062 302.3125 245.488281 304.539062 C 245.9375 306.765625 246.148438 309.011719 246.121094 311.285156 C 246.09375 313.554688 245.828125 315.796875 245.328125 318.011719 C 244.828125 320.226562 244.101562 322.367188 243.152344 324.429688 C 242.097656 326.71875 240.808594 328.867188 239.285156 330.871094 C 225.257812 349.820312 194.710938 357.929688 172.40625 363.855469 L 170.058594 364.476562 C 132.613281 374.460938 59.582031 379.273438 23.023438 349.695312 C 7.996094 337.539062 0.394531 320.941406 0.394531 300.316406 Z M 238.804688 310.847656 C 238.785156 307.40625 238.089844 304.105469 236.714844 300.945312 C 228.089844 280.691406 197.871094 264.429688 149.320312 253.914062 C 135.746094 250.972656 120.972656 248.535156 105.402344 246.664062 C 84.402344 244.140625 45.898438 242.667969 23.972656 261.15625 C 14.011719 269.554688 8.582031 281.378906 7.832031 296.300781 C 6.824219 316.488281 13.480469 332.542969 27.636719 343.996094 C 62.082031 371.863281 132.121094 367 168.171875 357.390625 L 170.523438 356.765625 C 190.582031 351.4375 220.890625 343.390625 233.386719 326.507812 C 234.59375 324.933594 235.613281 323.246094 236.449219 321.449219 C 237.992188 318.082031 238.773438 314.550781 238.804688 310.847656 Z M 150.097656 250.328125 Z M 150.097656 250.328125 " fill-opacity="1" fill-rule="nonzero"/><path fill="#fff8eb" d="M 234.371094 156.332031 C 254.777344 188.027344 274.015625 227.960938 263.226562 254.742188 C 262.488281 256.621094 261.5625 258.402344 260.445312 260.085938 C 259.328125 261.769531 258.046875 263.316406 256.601562 264.726562 C 255.15625 266.136719 253.578125 267.378906 251.867188 268.457031 C 250.160156 269.53125 248.355469 270.414062 246.457031 271.105469 C 244.34375 271.878906 242.171875 272.417969 239.941406 272.722656 C 217.0625 276.140625 188.53125 258.949219 169.609375 247.992188 C 123.230469 221.136719 37.671875 140.8125 98.808594 85.523438 C 138.273438 49.828125 182.429688 87.007812 208.242188 119.871094 C 215.320312 128.882812 224.96875 141.734375 234.371094 156.332031 Z M 234.371094 156.332031 " fill-opacity="1" fill-rule="nonzero"/><path fill="#1a1715" d="M 73.886719 129.851562 C 73.882812 112.101562 81.417969 96.304688 96.347656 82.800781 C 108.996094 71.363281 123.0625 66.214844 138.15625 67.496094 C 169.492188 70.164062 197.324219 100.035156 211.125 117.605469 C 220.953125 130.113281 229.808594 142.476562 237.453125 154.347656 C 266.097656 198.828125 275.910156 233.070312 266.628906 256.113281 C 265.796875 258.222656 264.75 260.226562 263.492188 262.117188 C 262.234375 264.007812 260.792969 265.746094 259.167969 267.332031 C 257.542969 268.917969 255.769531 270.320312 253.851562 271.53125 C 251.929688 272.742188 249.90625 273.742188 247.773438 274.527344 C 245.410156 275.402344 242.980469 276.011719 240.484375 276.351562 C 217.171875 279.832031 189.839844 263.96875 169.882812 252.390625 L 167.769531 251.164062 C 134.234375 231.746094 79.191406 183.507812 74.253906 136.742188 C 74.007812 134.453125 73.886719 132.15625 73.886719 129.851562 Z M 231.285156 158.320312 C 223.765625 146.640625 215.042969 134.464844 205.359375 122.136719 C 192.292969 105.503906 166.109375 77.238281 137.53125 74.804688 C 124.546875 73.699219 112.347656 78.222656 101.265625 88.242188 C 86.269531 101.804688 79.636719 117.867188 81.546875 135.972656 C 86.199219 180.039062 139.160156 226.121094 171.445312 244.816406 L 173.5625 246.042969 C 191.507812 256.457031 218.628906 272.195312 239.402344 269.09375 C 241.367188 268.832031 243.277344 268.363281 245.140625 267.683594 C 246.804688 267.082031 248.386719 266.316406 249.882812 265.375 C 251.382812 264.4375 252.765625 263.351562 254.03125 262.117188 C 255.300781 260.882812 256.421875 259.53125 257.398438 258.054688 C 258.375 256.582031 259.183594 255.019531 259.824219 253.371094 C 268.046875 232.960938 258.179688 200.085938 231.285156 158.320312 Z M 234.371094 156.332031 Z M 234.371094 156.332031 " fill-opacity="1" fill-rule="nonzero"/><path fill="#fff8eb" d="M 360.425781 149.457031 C 352.445312 186.296875 337.808594 228.136719 311.242188 239.449219 C 309.390625 240.257812 307.476562 240.859375 305.496094 241.261719 C 303.515625 241.660156 301.519531 241.847656 299.5 241.824219 C 297.480469 241.796875 295.484375 241.5625 293.515625 241.113281 C 291.546875 240.664062 289.644531 240.011719 287.816406 239.160156 C 285.773438 238.214844 283.855469 237.058594 282.0625 235.695312 C 263.472656 221.9375 255.453125 189.605469 249.820312 168.476562 C 236.015625 116.691406 232.3125 -0.601562 314.636719 3.527344 C 367.785156 6.199219 372.714844 63.710938 367.730469 105.199219 C 366.363281 116.574219 364.101562 132.484375 360.425781 149.457031 Z M 360.425781 149.457031 " fill-opacity="1" fill-rule="nonzero"/><path fill="#1a1715" d="M 238.589844 106.484375 C 238.589844 75.480469 244.308594 43.085938 261.054688 22.386719 C 274.066406 6.304688 292.15625 -1.269531 314.820312 -0.132812 C 331.855469 0.722656 345.441406 7.027344 355.203125 18.605469 C 375.480469 42.648438 374.035156 83.457031 371.371094 105.636719 C 369.472656 121.433594 366.996094 136.4375 364.007812 150.234375 C 352.808594 201.9375 335.539062 233.089844 312.679688 242.824219 C 310.597656 243.726562 308.441406 244.402344 306.214844 244.847656 C 303.988281 245.296875 301.738281 245.507812 299.46875 245.480469 C 297.199219 245.453125 294.957031 245.191406 292.742188 244.691406 C 290.527344 244.1875 288.386719 243.464844 286.324219 242.511719 C 284.035156 241.460938 281.886719 240.167969 279.882812 238.640625 C 260.933594 224.621094 252.824219 194.070312 246.898438 171.765625 L 246.277344 169.421875 C 241.101562 148.761719 238.539062 127.785156 238.589844 106.484375 Z M 365.570312 80.867188 C 365.570312 61.21875 362.28125 38.375 349.597656 23.332031 C 341.195312 13.371094 329.375 7.941406 314.453125 7.191406 C 294.257812 6.179688 278.210938 12.84375 266.757812 27 C 238.890625 61.449219 243.75 131.480469 253.363281 167.53125 L 253.988281 169.882812 C 259.316406 189.941406 267.363281 220.253906 284.246094 232.746094 C 285.820312 233.953125 287.507812 234.972656 289.304688 235.808594 C 290.90625 236.5625 292.566406 237.136719 294.289062 237.53125 C 296.011719 237.929688 297.757812 238.140625 299.527344 238.160156 C 301.292969 238.183594 303.046875 238.019531 304.777344 237.667969 C 306.511719 237.316406 308.1875 236.785156 309.804688 236.074219 C 330.058594 227.453125 346.324219 197.226562 356.839844 148.679688 C 359.78125 135.109375 362.21875 120.332031 364.089844 104.761719 C 365.054688 96.828125 365.546875 88.859375 365.570312 80.867188 Z M 365.570312 80.867188 " fill-opacity="1" fill-rule="nonzero"/><path fill="#fff8eb" d="M 454.421875 233.730469 C 422.726562 254.136719 382.792969 273.375 356.011719 262.589844 C 354.128906 261.851562 352.347656 260.921875 350.667969 259.804688 C 348.984375 258.6875 347.4375 257.40625 346.027344 255.960938 C 344.617188 254.515625 343.375 252.9375 342.296875 251.230469 C 341.222656 249.519531 340.339844 247.714844 339.648438 245.816406 C 338.871094 243.703125 338.335938 241.53125 338.03125 239.300781 C 334.613281 216.425781 351.804688 187.890625 362.761719 168.96875 C 389.617188 122.589844 469.941406 37.035156 525.230469 98.167969 C 560.925781 137.632812 523.746094 181.789062 490.882812 207.601562 C 481.871094 214.679688 469.019531 224.328125 454.421875 233.730469 Z M 454.421875 233.730469 " fill-opacity="1" fill-rule="nonzero"/><path fill="#1a1715" d="M 333.914062 233.058594 C 333.914062 211.371094 347.894531 187.285156 358.371094 169.230469 L 359.589844 167.132812 C 379.007812 133.59375 427.246094 78.550781 474.011719 73.613281 C 494.578125 71.441406 512.726562 78.875 527.953125 95.707031 C 539.390625 108.355469 544.53125 122.414062 543.257812 137.515625 C 540.589844 168.851562 510.71875 196.683594 493.148438 210.484375 C 480.640625 220.3125 468.277344 229.171875 456.40625 236.8125 C 411.925781 265.457031 377.6875 275.269531 354.640625 265.988281 C 352.53125 265.15625 350.527344 264.109375 348.636719 262.851562 C 346.746094 261.59375 345.007812 260.152344 343.421875 258.527344 C 341.832031 256.902344 340.433594 255.132812 339.222656 253.210938 C 338.007812 251.289062 337.011719 249.265625 336.226562 247.132812 C 335.351562 244.769531 334.742188 242.339844 334.402344 239.84375 C 334.074219 237.59375 333.910156 235.332031 333.914062 233.058594 Z M 536.113281 133.085938 C 536.113281 121.519531 531.546875 110.617188 522.511719 100.628906 C 508.949219 85.628906 492.890625 78.996094 474.78125 80.90625 C 430.71875 85.558594 384.632812 138.519531 365.933594 170.808594 L 364.714844 172.914062 C 354.296875 190.863281 338.5625 217.980469 341.660156 238.761719 C 341.921875 240.726562 342.390625 242.640625 343.070312 244.503906 C 343.671875 246.167969 344.441406 247.746094 345.378906 249.246094 C 346.316406 250.746094 347.402344 252.128906 348.636719 253.394531 C 349.871094 254.660156 351.222656 255.78125 352.699219 256.757812 C 354.171875 257.734375 355.734375 258.542969 357.378906 259.183594 C 377.800781 267.410156 410.667969 257.539062 452.4375 230.648438 C 464.113281 223.125 476.289062 214.402344 488.617188 204.71875 C 505.25 191.652344 533.515625 165.46875 535.949219 136.894531 C 536.058594 135.617188 536.113281 134.347656 536.113281 133.085938 Z M 536.113281 133.085938 " fill-opacity="1" fill-rule="nonzero"/><path fill="#fff8eb" d="M 461.296875 359.785156 C 424.457031 351.804688 382.617188 337.171875 371.304688 310.605469 C 370.5 308.753906 369.894531 306.839844 369.496094 304.859375 C 369.09375 302.878906 368.90625 300.878906 368.929688 298.859375 C 368.957031 296.839844 369.191406 294.847656 369.640625 292.875 C 370.089844 290.90625 370.742188 289.007812 371.59375 287.175781 C 372.539062 285.132812 373.695312 283.21875 375.058594 281.425781 C 388.820312 262.832031 421.148438 254.8125 442.277344 249.179688 C 494.0625 235.375 611.355469 231.675781 607.226562 314 C 604.558594 367.144531 547.042969 372.078125 505.554688 367.09375 C 494.179688 365.726562 478.269531 363.460938 461.296875 359.785156 Z M 461.296875 359.785156 " fill-opacity="1" fill-rule="nonzero"/><path fill="#1a1715" d="M 365.269531 299.273438 C 365.292969 294.53125 366.285156 290.003906 368.242188 285.6875 C 369.292969 283.398438 370.585938 281.25 372.113281 279.246094 C 386.132812 260.296875 416.679688 252.1875 438.980469 246.261719 L 441.332031 245.636719 C 478.777344 235.652344 551.808594 230.839844 588.371094 260.417969 C 604.449219 273.429688 612.027344 291.519531 610.890625 314.183594 C 610.035156 331.214844 603.730469 344.804688 592.148438 354.566406 C 568.105469 374.839844 527.300781 373.398438 505.117188 370.734375 C 489.320312 368.835938 474.316406 366.359375 460.519531 363.371094 C 408.816406 352.167969 377.664062 334.902344 367.929688 312.042969 C 366.171875 307.96875 365.28125 303.710938 365.269531 299.273438 Z M 603.664062 309.867188 C 603.664062 291.519531 596.976562 276.816406 583.757812 266.121094 C 549.308594 238.253906 479.273438 243.113281 443.222656 252.722656 L 440.863281 253.351562 C 420.808594 258.675781 390.5 266.726562 378.007812 283.609375 C 376.800781 285.183594 375.78125 286.867188 374.945312 288.667969 C 374.191406 290.265625 373.617188 291.929688 373.222656 293.652344 C 372.824219 295.375 372.617188 297.121094 372.59375 298.886719 C 372.570312 300.65625 372.734375 302.40625 373.085938 304.140625 C 373.4375 305.871094 373.96875 307.546875 374.679688 309.167969 C 383.300781 329.417969 413.527344 345.683594 462.074219 356.203125 C 475.648438 359.140625 490.421875 361.582031 505.992188 363.449219 C 526.992188 365.972656 565.496094 367.445312 587.421875 348.960938 C 597.382812 340.558594 602.8125 328.738281 603.5625 313.816406 C 603.628906 312.484375 603.664062 311.167969 603.664062 309.867188 Z M 461.296875 359.785156 Z M 461.296875 359.785156 " fill-opacity="1" fill-rule="nonzero"/><path fill="#fff8eb" d="M 377.023438 453.78125 C 356.617188 422.089844 337.378906 382.15625 348.167969 355.371094 C 348.90625 353.492188 349.832031 351.710938 350.949219 350.027344 C 352.066406 348.347656 353.347656 346.800781 354.792969 345.390625 C 356.238281 343.980469 357.816406 342.734375 359.527344 341.660156 C 361.234375 340.585938 363.039062 339.703125 364.9375 339.011719 C 367.050781 338.234375 369.222656 337.695312 371.453125 337.394531 C 394.328125 333.976562 422.863281 351.167969 441.785156 362.125 C 488.164062 388.980469 573.71875 469.304688 512.585938 524.59375 C 473.121094 560.285156 428.964844 523.105469 403.152344 490.246094 C 396.074219 481.234375 386.425781 468.382812 377.023438 453.78125 Z M 377.023438 453.78125 " fill-opacity="1" fill-rule="nonzero"/><path fill="#1a1715" d="M 341.378906 372.8125 C 341.285156 366.320312 342.414062 360.054688 344.765625 354.003906 C 345.597656 351.890625 346.644531 349.890625 347.902344 348 C 349.160156 346.109375 350.601562 344.371094 352.226562 342.78125 C 353.851562 341.195312 355.621094 339.796875 357.542969 338.585938 C 359.464844 337.371094 361.488281 336.371094 363.621094 335.589844 C 365.984375 334.714844 368.414062 334.105469 370.910156 333.765625 C 394.222656 330.285156 421.558594 346.148438 441.515625 357.730469 L 443.621094 358.953125 C 477.160156 378.371094 532.203125 426.605469 537.140625 473.371094 C 539.316406 493.941406 531.878906 512.089844 515.046875 527.3125 C 502.398438 538.753906 488.332031 543.902344 473.242188 542.617188 C 441.902344 539.953125 414.070312 510.078125 400.269531 492.507812 C 390.433594 479.988281 381.578125 467.628906 373.941406 455.769531 L 377.023438 453.78125 L 373.941406 455.769531 C 352.273438 422.117188 341.378906 394.328125 341.378906 372.8125 Z M 530.167969 480.148438 C 530.167969 478.140625 530.058594 476.136719 529.847656 474.140625 C 525.195312 430.074219 472.234375 383.992188 439.945312 365.296875 L 437.835938 364.074219 C 419.886719 353.660156 392.765625 337.917969 371.992188 341.019531 C 370.027344 341.28125 368.113281 341.753906 366.253906 342.433594 C 364.589844 343.03125 363.007812 343.800781 361.507812 344.738281 C 360.011719 345.675781 358.628906 346.765625 357.359375 347.996094 C 356.09375 349.230469 354.972656 350.585938 353.996094 352.058594 C 353.019531 353.535156 352.210938 355.09375 351.570312 356.742188 C 343.34375 377.164062 353.214844 410.03125 380.105469 451.796875 C 387.621094 463.464844 396.34375 475.636719 406.035156 487.980469 C 419.101562 504.613281 445.289062 532.878906 473.863281 535.308594 C 486.847656 536.414062 499.046875 531.894531 510.125 521.871094 C 523.445312 509.828125 530.167969 495.816406 530.167969 480.148438 Z M 530.167969 480.148438 " fill-opacity="1" fill-rule="nonzero"/><path fill="#fff8eb" d="M 250.96875 460.65625 C 258.949219 423.816406 273.585938 381.976562 300.148438 370.667969 C 302 369.859375 303.917969 369.253906 305.894531 368.855469 C 307.875 368.457031 309.875 368.269531 311.894531 368.292969 C 313.914062 368.316406 315.910156 368.554688 317.878906 369.003906 C 319.847656 369.453125 321.746094 370.101562 323.578125 370.953125 C 325.621094 371.902344 327.539062 373.054688 329.328125 374.417969 C 347.921875 388.179688 355.941406 420.511719 361.574219 441.636719 C 375.378906 493.421875 379.078125 610.71875 296.753906 606.585938 C 243.609375 603.917969 238.675781 546.40625 243.664062 504.914062 C 245.027344 493.539062 247.292969 477.628906 250.96875 460.65625 Z M 250.96875 460.65625 " fill-opacity="1" fill-rule="nonzero"/><path fill="#1a1715" d="M 238.503906 529.050781 C 238.527344 520.828125 239.03125 512.640625 240.019531 504.480469 C 241.917969 488.679688 244.394531 473.675781 247.382812 459.882812 C 258.582031 408.179688 275.851562 377.027344 298.710938 367.292969 C 300.796875 366.390625 302.949219 365.714844 305.175781 365.265625 C 307.402344 364.820312 309.652344 364.609375 311.921875 364.632812 C 314.195312 364.660156 316.4375 364.925781 318.652344 365.425781 C 320.867188 365.925781 323.007812 366.652344 325.066406 367.605469 C 327.359375 368.65625 329.503906 369.945312 331.507812 371.46875 C 350.457031 385.492188 358.566406 416.035156 364.492188 438.332031 L 365.117188 440.695312 C 375.101562 478.140625 379.914062 551.171875 350.335938 587.730469 C 337.328125 603.808594 319.238281 611.386719 296.570312 610.25 C 279.539062 609.394531 265.949219 603.089844 256.1875 591.507812 C 242.117188 574.820312 238.503906 550.054688 238.503906 529.050781 Z M 365.574219 504.046875 C 365.609375 483.246094 363.09375 462.757812 358.03125 442.582031 L 357.402344 440.214844 C 352.074219 420.164062 344.027344 389.859375 327.148438 377.367188 C 325.574219 376.160156 323.886719 375.140625 322.089844 374.304688 C 320.488281 373.554688 318.828125 372.980469 317.101562 372.582031 C 315.378906 372.1875 313.632812 371.976562 311.867188 371.953125 C 310.097656 371.929688 308.347656 372.09375 306.613281 372.445312 C 304.882812 372.796875 303.207031 373.328125 301.585938 374.039062 C 281.332031 382.664062 265.066406 412.886719 254.554688 461.433594 C 251.613281 475.003906 249.175781 489.78125 247.304688 505.351562 C 244.78125 526.351562 243.308594 564.855469 261.792969 586.78125 C 270.191406 596.742188 282.019531 602.175781 296.9375 602.921875 C 317.136719 603.9375 333.179688 597.273438 344.632812 583.117188 C 360.230469 563.84375 365.574219 533.421875 365.574219 504.046875 Z M 365.574219 504.046875 " fill-opacity="1" fill-rule="nonzero"/><path fill="#fff8eb" d="M 156.972656 376.386719 C 188.664062 355.980469 228.597656 336.742188 255.382812 347.527344 C 257.261719 348.265625 259.042969 349.195312 260.726562 350.3125 C 262.410156 351.429688 263.953125 352.710938 265.367188 354.15625 C 266.777344 355.601562 268.019531 357.179688 269.09375 358.886719 C 270.167969 360.597656 271.050781 362.402344 271.746094 364.296875 C 272.519531 366.414062 273.058594 368.585938 273.359375 370.816406 C 276.777344 393.691406 259.585938 422.222656 248.628906 441.148438 C 221.773438 487.523438 141.449219 573.082031 86.160156 511.949219 C 50.46875 472.480469 87.648438 428.328125 120.511719 402.515625 C 129.519531 395.4375 142.371094 385.789062 156.972656 376.386719 Z M 156.972656 376.386719 " fill-opacity="1" fill-rule="nonzero"/><path fill="#1a1715" d="M 67.941406 477.09375 C 67.941406 475.609375 68.007812 474.109375 68.136719 472.601562 C 70.800781 441.265625 100.675781 413.433594 118.246094 399.632812 C 130.753906 389.804688 143.113281 380.949219 154.984375 373.304688 C 199.464844 344.660156 233.703125 334.847656 256.75 344.125 C 258.863281 344.960938 260.863281 346.007812 262.753906 347.265625 C 264.644531 348.523438 266.382812 349.964844 267.972656 351.589844 C 269.558594 353.214844 270.957031 354.984375 272.171875 356.90625 C 273.382812 358.828125 274.382812 360.851562 275.167969 362.984375 C 276.042969 365.34375 276.648438 367.773438 276.988281 370.269531 C 280.46875 393.597656 264.605469 420.921875 253.023438 440.882812 L 251.804688 442.984375 C 232.382812 476.519531 184.148438 531.566406 137.382812 536.503906 C 116.8125 538.675781 98.664062 531.242188 83.441406 514.410156 C 73.144531 503.023438 67.941406 490.492188 67.941406 477.09375 Z M 158.957031 379.46875 C 147.277344 386.992188 135.101562 395.714844 122.773438 405.398438 C 106.140625 418.464844 77.875 444.648438 75.445312 473.222656 C 74.34375 486.207031 78.859375 498.40625 88.878906 509.488281 C 102.445312 524.484375 118.503906 531.121094 136.613281 529.207031 C 180.675781 524.554688 226.761719 471.597656 245.457031 439.308594 L 246.679688 437.203125 C 257.09375 419.253906 272.84375 392.128906 269.734375 371.355469 C 269.472656 369.390625 269 367.476562 268.320312 365.613281 C 267.722656 363.949219 266.953125 362.371094 266.015625 360.871094 C 265.074219 359.371094 263.988281 357.988281 262.753906 356.722656 C 261.519531 355.457031 260.167969 354.335938 258.691406 353.359375 C 257.21875 352.382812 255.65625 351.574219 254.011719 350.929688 C 233.59375 342.707031 200.722656 352.578125 158.957031 379.46875 Z M 158.957031 379.46875 " fill-opacity="1" fill-rule="nonzero"/><path fill="#ffc928" d="M 305.695312 408.894531 C 303.996094 408.894531 302.300781 408.851562 300.601562 408.769531 C 298.90625 408.683594 297.210938 408.558594 295.519531 408.394531 C 293.828125 408.226562 292.140625 408.019531 290.460938 407.769531 C 288.78125 407.519531 287.105469 407.230469 285.4375 406.898438 C 283.773438 406.566406 282.113281 406.195312 280.464844 405.78125 C 278.816406 405.367188 277.179688 404.914062 275.554688 404.421875 C 273.929688 403.929688 272.316406 403.394531 270.714844 402.824219 C 269.117188 402.25 267.53125 401.640625 265.960938 400.988281 C 264.390625 400.339844 262.835938 399.652344 261.300781 398.925781 C 259.765625 398.199219 258.246094 397.433594 256.75 396.632812 C 255.25 395.832031 253.773438 394.992188 252.316406 394.121094 C 250.855469 393.246094 249.421875 392.335938 248.007812 391.394531 C 246.597656 390.449219 245.207031 389.472656 243.84375 388.460938 C 242.476562 387.445312 241.136719 386.402344 239.824219 385.324219 C 238.511719 384.246094 237.222656 383.136719 235.964844 381.996094 C 234.707031 380.851562 233.476562 379.683594 232.273438 378.480469 C 231.070312 377.277344 229.902344 376.046875 228.757812 374.789062 C 227.617188 373.53125 226.507812 372.242188 225.429688 370.929688 C 224.351562 369.617188 223.308594 368.277344 222.296875 366.914062 C 221.28125 365.546875 220.304688 364.160156 219.359375 362.746094 C 218.417969 361.332031 217.507812 359.898438 216.632812 358.441406 C 215.761719 356.980469 214.921875 355.503906 214.121094 354.003906 C 213.320312 352.507812 212.558594 350.988281 211.832031 349.453125 C 211.105469 347.917969 210.414062 346.363281 209.765625 344.792969 C 209.113281 343.222656 208.503906 341.640625 207.929688 340.039062 C 207.359375 338.4375 206.824219 336.824219 206.332031 335.199219 C 205.839844 333.574219 205.386719 331.9375 204.972656 330.289062 C 204.558594 328.640625 204.1875 326.980469 203.855469 325.316406 C 203.523438 323.648438 203.234375 321.972656 202.984375 320.292969 C 202.734375 318.613281 202.527344 316.925781 202.359375 315.234375 C 202.195312 313.542969 202.070312 311.851562 201.984375 310.152344 C 201.902344 308.457031 201.859375 306.757812 201.859375 305.058594 C 201.859375 303.359375 201.902344 301.660156 201.984375 299.960938 C 202.070312 298.265625 202.195312 296.570312 202.359375 294.878906 C 202.527344 293.1875 202.734375 291.503906 202.984375 289.820312 C 203.234375 288.140625 203.523438 286.46875 203.855469 284.800781 C 204.1875 283.132812 204.558594 281.476562 204.972656 279.828125 C 205.386719 278.179688 205.839844 276.542969 206.332031 274.914062 C 206.824219 273.289062 207.359375 271.675781 207.929688 270.078125 C 208.503906 268.476562 209.113281 266.890625 209.765625 265.320312 C 210.414062 263.75 211.105469 262.199219 211.832031 260.664062 C 212.558594 259.125 213.320312 257.609375 214.121094 256.109375 C 214.921875 254.609375 215.761719 253.132812 216.632812 251.675781 C 217.507812 250.21875 218.417969 248.78125 219.359375 247.371094 C 220.304688 245.957031 221.28125 244.566406 222.296875 243.203125 C 223.308594 241.839844 224.351562 240.5 225.429688 239.183594 C 226.507812 237.871094 227.617188 236.585938 228.757812 235.324219 C 229.902344 234.066406 231.070312 232.835938 232.273438 231.636719 C 233.476562 230.433594 234.707031 229.261719 235.964844 228.121094 C 237.222656 226.980469 238.511719 225.871094 239.824219 224.792969 C 241.136719 223.714844 242.476562 222.667969 243.84375 221.65625 C 245.207031 220.644531 246.597656 219.664062 248.007812 218.722656 C 249.421875 217.777344 250.855469 216.867188 252.316406 215.996094 C 253.773438 215.121094 255.25 214.285156 256.75 213.484375 C 258.246094 212.683594 259.765625 211.917969 261.300781 211.191406 C 262.835938 210.464844 264.390625 209.777344 265.960938 209.125 C 267.53125 208.476562 269.117188 207.863281 270.714844 207.292969 C 272.316406 206.71875 273.929688 206.1875 275.554688 205.691406 C 277.179688 205.199219 278.816406 204.746094 280.464844 204.332031 C 282.113281 203.921875 283.773438 203.550781 285.4375 203.21875 C 287.105469 202.886719 288.78125 202.59375 290.460938 202.347656 C 292.140625 202.097656 293.828125 201.890625 295.519531 201.722656 C 297.210938 201.554688 298.90625 201.429688 300.601562 201.347656 C 302.300781 201.265625 303.996094 201.222656 305.695312 201.222656 C 307.394531 201.222656 309.09375 201.265625 310.792969 201.347656 C 312.488281 201.429688 314.183594 201.554688 315.875 201.722656 C 317.566406 201.890625 319.25 202.097656 320.933594 202.347656 C 322.613281 202.59375 324.289062 202.886719 325.953125 203.21875 C 327.621094 203.550781 329.277344 203.921875 330.925781 204.332031 C 332.574219 204.746094 334.210938 205.199219 335.839844 205.691406 C 337.464844 206.1875 339.078125 206.71875 340.679688 207.292969 C 342.277344 207.863281 343.863281 208.476562 345.433594 209.125 C 347.003906 209.777344 348.554688 210.464844 350.09375 211.191406 C 351.628906 211.917969 353.144531 212.683594 354.644531 213.484375 C 356.144531 214.285156 357.621094 215.121094 359.078125 215.996094 C 360.535156 216.867188 361.972656 217.777344 363.382812 218.722656 C 364.796875 219.664062 366.1875 220.644531 367.550781 221.65625 C 368.917969 222.667969 370.253906 223.714844 371.570312 224.792969 C 372.882812 225.871094 374.167969 226.980469 375.429688 228.121094 C 376.6875 229.261719 377.917969 230.433594 379.121094 231.636719 C 380.320312 232.835938 381.492188 234.066406 382.632812 235.324219 C 383.773438 236.585938 384.882812 237.871094 385.960938 239.183594 C 387.039062 240.5 388.085938 241.839844 389.097656 243.203125 C 390.109375 244.566406 391.089844 245.957031 392.03125 247.371094 C 392.976562 248.78125 393.886719 250.21875 394.757812 251.675781 C 395.632812 253.132812 396.46875 254.609375 397.269531 256.109375 C 398.074219 257.609375 398.835938 259.125 399.5625 260.664062 C 400.289062 262.199219 400.976562 263.75 401.628906 265.320312 C 402.277344 266.890625 402.890625 268.476562 403.460938 270.078125 C 404.035156 271.675781 404.566406 273.289062 405.0625 274.914062 C 405.554688 276.542969 406.007812 278.179688 406.421875 279.828125 C 406.832031 281.476562 407.207031 283.132812 407.535156 284.800781 C 407.867188 286.46875 408.160156 288.140625 408.410156 289.820312 C 408.65625 291.503906 408.867188 293.1875 409.03125 294.878906 C 409.199219 296.570312 409.324219 298.265625 409.40625 299.960938 C 409.492188 301.660156 409.53125 303.359375 409.53125 305.058594 C 409.53125 306.757812 409.492188 308.457031 409.40625 310.152344 C 409.324219 311.851562 409.199219 313.542969 409.03125 315.234375 C 408.867188 316.925781 408.65625 318.613281 408.410156 320.292969 C 408.160156 321.972656 407.867188 323.648438 407.535156 325.316406 C 407.207031 326.980469 406.832031 328.640625 406.421875 330.289062 C 406.007812 331.9375 405.554688 333.574219 405.0625 335.199219 C 404.566406 336.824219 404.035156 338.4375 403.460938 340.039062 C 402.890625 341.640625 402.277344 343.222656 401.628906 344.792969 C 400.976562 346.363281 400.289062 347.917969 399.5625 349.453125 C 398.835938 350.988281 398.074219 352.507812 397.269531 354.003906 C 396.46875 355.503906 395.632812 356.980469 394.757812 358.441406 C 393.886719 359.898438 392.976562 361.332031 392.03125 362.746094 C 391.089844 364.160156 390.109375 365.546875 389.097656 366.914062 C 388.085938 368.277344 387.039062 369.617188 385.960938 370.929688 C 384.882812 372.242188 383.773438 373.53125 382.632812 374.789062 C 381.492188 376.046875 380.320312 377.277344 379.121094 378.480469 C 377.917969 379.683594 376.6875 380.851562 375.429688 381.996094 C 374.167969 383.136719 372.882812 384.246094 371.570312 385.324219 C 370.253906 386.402344 368.917969 387.445312 367.550781 388.460938 C 366.1875 389.472656 364.796875 390.449219 363.382812 391.394531 C 361.972656 392.335938 360.535156 393.246094 359.078125 394.121094 C 357.621094 394.992188 356.144531 395.832031 354.644531 396.632812 C 353.144531 397.433594 351.628906 398.199219 350.09375 398.925781 C 348.554688 399.652344 347.003906 400.339844 345.433594 400.988281 C 343.863281 401.640625 342.277344 402.25 340.679688 402.824219 C 339.078125 403.394531 337.464844 403.929688 335.839844 404.421875 C 334.210938 404.914062 332.574219 405.367188 330.925781 405.78125 C 329.277344 406.195312 327.621094 406.566406 325.953125 406.898438 C 324.289062 407.230469 322.613281 407.519531 320.933594 407.769531 C 319.25 408.019531 317.566406 408.226562 315.875 408.394531 C 314.183594 408.558594 312.488281 408.683594 310.792969 408.769531 C 309.09375 408.851562 307.394531 408.894531 305.695312 408.894531 Z M 305.695312 408.894531 " fill-opacity="1" fill-rule="nonzero"/><path fill="#1a1715" d="M 198.195312 305.058594 C 198.195312 303.296875 198.238281 301.539062 198.324219 299.78125 C 198.410156 298.027344 198.539062 296.273438 198.710938 294.519531 C 198.882812 292.769531 199.097656 291.023438 199.359375 289.285156 C 199.617188 287.542969 199.917969 285.8125 200.257812 284.085938 C 200.601562 282.359375 200.988281 280.644531 201.414062 278.9375 C 201.84375 277.230469 202.3125 275.535156 202.824219 273.851562 C 203.332031 272.167969 203.886719 270.496094 204.476562 268.839844 C 205.070312 267.183594 205.703125 265.542969 206.378906 263.917969 C 207.050781 262.292969 207.761719 260.683594 208.515625 259.09375 C 209.269531 257.503906 210.058594 255.933594 210.886719 254.382812 C 211.71875 252.828125 212.585938 251.300781 213.488281 249.789062 C 214.394531 248.28125 215.332031 246.796875 216.3125 245.332031 C 217.289062 243.871094 218.300781 242.433594 219.351562 241.019531 C 220.398438 239.605469 221.480469 238.21875 222.597656 236.859375 C 223.710938 235.5 224.859375 234.167969 226.042969 232.863281 C 227.222656 231.558594 228.4375 230.285156 229.679688 229.042969 C 230.925781 227.796875 232.199219 226.585938 233.503906 225.402344 C 234.804688 224.222656 236.136719 223.074219 237.496094 221.957031 C 238.859375 220.839844 240.246094 219.757812 241.65625 218.710938 C 243.070312 217.664062 244.507812 216.652344 245.972656 215.671875 C 247.433594 214.695312 248.921875 213.753906 250.429688 212.851562 C 251.9375 211.945312 253.46875 211.078125 255.019531 210.25 C 256.570312 209.421875 258.144531 208.628906 259.734375 207.878906 C 261.324219 207.125 262.933594 206.410156 264.558594 205.738281 C 266.183594 205.066406 267.824219 204.433594 269.480469 203.839844 C 271.136719 203.246094 272.808594 202.695312 274.492188 202.183594 C 276.175781 201.675781 277.867188 201.203125 279.574219 200.777344 C 281.28125 200.351562 283 199.964844 284.722656 199.621094 C 286.449219 199.277344 288.183594 198.976562 289.921875 198.71875 C 291.664062 198.460938 293.410156 198.246094 295.160156 198.074219 C 296.910156 197.902344 298.664062 197.769531 300.421875 197.683594 C 302.179688 197.597656 303.9375 197.554688 305.695312 197.554688 C 307.457031 197.554688 309.214844 197.597656 310.972656 197.683594 C 312.730469 197.769531 314.484375 197.902344 316.234375 198.074219 C 317.984375 198.246094 319.730469 198.460938 321.472656 198.71875 C 323.210938 198.976562 324.945312 199.277344 326.667969 199.621094 C 328.394531 199.964844 330.109375 200.351562 331.816406 200.777344 C 333.523438 201.203125 335.21875 201.675781 336.902344 202.183594 C 338.585938 202.695312 340.257812 203.246094 341.914062 203.839844 C 343.570312 204.433594 345.210938 205.066406 346.835938 205.738281 C 348.460938 206.410156 350.070312 207.125 351.660156 207.878906 C 353.25 208.628906 354.820312 209.421875 356.375 210.25 C 357.925781 211.078125 359.457031 211.945312 360.964844 212.851562 C 362.472656 213.753906 363.960938 214.695312 365.421875 215.671875 C 366.886719 216.652344 368.324219 217.664062 369.734375 218.710938 C 371.148438 219.757812 372.535156 220.839844 373.894531 221.957031 C 375.257812 223.074219 376.585938 224.222656 377.890625 225.402344 C 379.195312 226.585938 380.46875 227.796875 381.710938 229.042969 C 382.957031 230.285156 384.167969 231.558594 385.351562 232.863281 C 386.53125 234.167969 387.679688 235.5 388.796875 236.859375 C 389.914062 238.21875 390.996094 239.605469 392.042969 241.019531 C 393.09375 242.433594 394.105469 243.871094 395.082031 245.332031 C 396.058594 246.796875 397 248.28125 397.90625 249.792969 C 398.808594 251.300781 399.675781 252.832031 400.507812 254.382812 C 401.335938 255.933594 402.125 257.503906 402.878906 259.09375 C 403.628906 260.6875 404.34375 262.292969 405.015625 263.917969 C 405.691406 265.542969 406.324219 267.183594 406.914062 268.84375 C 407.507812 270.5 408.058594 272.167969 408.570312 273.851562 C 409.082031 275.535156 409.550781 277.230469 409.976562 278.9375 C 410.40625 280.644531 410.789062 282.359375 411.132812 284.085938 C 411.476562 285.8125 411.777344 287.542969 412.035156 289.285156 C 412.292969 291.023438 412.507812 292.769531 412.683594 294.523438 C 412.855469 296.273438 412.984375 298.027344 413.070312 299.785156 C 413.15625 301.539062 413.199219 303.300781 413.199219 305.058594 C 413.199219 306.816406 413.15625 308.578125 413.070312 310.332031 C 412.984375 312.089844 412.855469 313.84375 412.683594 315.597656 C 412.507812 317.347656 412.292969 319.09375 412.035156 320.832031 C 411.777344 322.574219 411.476562 324.304688 411.132812 326.03125 C 410.789062 327.757812 410.40625 329.472656 409.976562 331.179688 C 409.550781 332.886719 409.082031 334.582031 408.570312 336.265625 C 408.058594 337.949219 407.507812 339.617188 406.914062 341.273438 C 406.324219 342.933594 405.691406 344.574219 405.015625 346.199219 C 404.34375 347.824219 403.628906 349.429688 402.878906 351.023438 C 402.125 352.613281 401.335938 354.183594 400.503906 355.734375 C 399.675781 357.285156 398.808594 358.816406 397.90625 360.324219 C 397 361.835938 396.058594 363.320312 395.082031 364.785156 C 394.105469 366.246094 393.09375 367.683594 392.042969 369.097656 C 390.996094 370.511719 389.914062 371.898438 388.796875 373.257812 C 387.679688 374.617188 386.53125 375.949219 385.351562 377.253906 C 384.167969 378.558594 382.957031 379.832031 381.710938 381.074219 C 380.46875 382.320312 379.195312 383.53125 377.890625 384.714844 C 376.585938 385.894531 375.253906 387.042969 373.894531 388.160156 C 372.535156 389.277344 371.148438 390.359375 369.734375 391.40625 C 368.324219 392.453125 366.882812 393.464844 365.421875 394.445312 C 363.957031 395.421875 362.472656 396.363281 360.964844 397.265625 C 359.453125 398.171875 357.925781 399.039062 356.371094 399.867188 C 354.820312 400.695312 353.25 401.488281 351.660156 402.238281 C 350.070312 402.992188 348.460938 403.703125 346.835938 404.378906 C 345.210938 405.050781 343.570312 405.683594 341.914062 406.277344 C 340.257812 406.871094 338.585938 407.421875 336.902344 407.933594 C 335.21875 408.441406 333.523438 408.914062 331.816406 409.339844 C 330.109375 409.765625 328.394531 410.152344 326.667969 410.496094 C 324.945312 410.839844 323.210938 411.140625 321.46875 411.398438 C 319.730469 411.65625 317.984375 411.871094 316.234375 412.042969 C 314.480469 412.214844 312.726562 412.34375 310.972656 412.433594 C 309.214844 412.519531 307.457031 412.5625 305.695312 412.5625 C 303.9375 412.558594 302.179688 412.515625 300.421875 412.425781 C 298.667969 412.339844 296.914062 412.207031 295.164062 412.03125 C 293.414062 411.859375 291.667969 411.640625 289.929688 411.382812 C 288.1875 411.121094 286.457031 410.820312 284.730469 410.476562 C 283.007812 410.132812 281.292969 409.746094 279.585938 409.316406 C 277.878906 408.886719 276.1875 408.417969 274.503906 407.90625 C 272.820312 407.394531 271.152344 406.839844 269.496094 406.246094 C 267.839844 405.652344 266.199219 405.019531 264.574219 404.34375 C 262.949219 403.671875 261.34375 402.957031 259.753906 402.207031 C 258.164062 401.453125 256.59375 400.660156 255.042969 399.832031 C 253.492188 399 251.964844 398.132812 250.453125 397.230469 C 248.945312 396.324219 247.460938 395.382812 246 394.40625 C 244.539062 393.429688 243.101562 392.414062 241.6875 391.367188 C 240.273438 390.320312 238.890625 389.238281 237.53125 388.121094 C 236.171875 387.003906 234.839844 385.855469 233.535156 384.675781 C 232.234375 383.496094 230.960938 382.28125 229.714844 381.039062 C 228.472656 379.792969 227.257812 378.519531 226.078125 377.21875 C 224.898438 375.914062 223.75 374.582031 222.632812 373.222656 C 221.515625 371.863281 220.433594 370.480469 219.386719 369.066406 C 218.339844 367.652344 217.324219 366.214844 216.347656 364.753906 C 215.371094 363.292969 214.429688 361.808594 213.523438 360.300781 C 212.621094 358.789062 211.753906 357.261719 210.921875 355.710938 C 210.09375 354.160156 209.300781 352.589844 208.550781 351 C 207.796875 349.410156 207.082031 347.804688 206.410156 346.179688 C 205.734375 344.554688 205.101562 342.914062 204.507812 341.257812 C 203.914062 339.601562 203.363281 337.933594 202.851562 336.25 C 202.339844 334.566406 201.867188 332.875 201.4375 331.167969 C 201.011719 329.460938 200.625 327.746094 200.28125 326.023438 C 199.933594 324.296875 199.632812 322.566406 199.375 320.824219 C 199.113281 319.085938 198.898438 317.339844 198.722656 315.589844 C 198.546875 313.839844 198.417969 312.085938 198.328125 310.332031 C 198.242188 308.574219 198.195312 306.816406 198.195312 305.058594 Z M 405.863281 305.058594 C 405.863281 303.417969 405.824219 301.78125 405.746094 300.144531 C 405.664062 298.503906 405.542969 296.871094 405.382812 295.238281 C 405.222656 293.609375 405.019531 291.980469 404.78125 290.359375 C 404.539062 288.738281 404.261719 287.125 403.941406 285.515625 C 403.621094 283.910156 403.261719 282.308594 402.863281 280.71875 C 402.464844 279.128906 402.027344 277.550781 401.550781 275.980469 C 401.074219 274.410156 400.5625 272.855469 400.007812 271.3125 C 399.457031 269.769531 398.867188 268.238281 398.238281 266.726562 C 397.613281 265.210938 396.949219 263.710938 396.246094 262.230469 C 395.546875 260.75 394.808594 259.285156 394.039062 257.839844 C 393.265625 256.394531 392.457031 254.96875 391.613281 253.5625 C 390.769531 252.15625 389.894531 250.769531 388.984375 249.40625 C 388.074219 248.042969 387.128906 246.703125 386.152344 245.386719 C 385.175781 244.070312 384.167969 242.78125 383.128906 241.511719 C 382.085938 240.246094 381.015625 239.003906 379.917969 237.789062 C 378.816406 236.574219 377.683594 235.386719 376.527344 234.230469 C 375.367188 233.070312 374.179688 231.941406 372.964844 230.839844 C 371.75 229.738281 370.511719 228.667969 369.242188 227.628906 C 367.976562 226.585938 366.683594 225.578125 365.367188 224.601562 C 364.050781 223.625 362.710938 222.683594 361.347656 221.773438 C 359.984375 220.859375 358.597656 219.984375 357.195312 219.140625 C 355.789062 218.296875 354.363281 217.492188 352.914062 216.71875 C 351.46875 215.945312 350.007812 215.207031 348.523438 214.507812 C 347.042969 213.804688 345.542969 213.140625 344.03125 212.515625 C 342.515625 211.886719 340.984375 211.296875 339.441406 210.746094 C 337.898438 210.195312 336.34375 209.679688 334.773438 209.203125 C 333.207031 208.726562 331.625 208.289062 330.035156 207.890625 C 328.445312 207.492188 326.847656 207.136719 325.238281 206.816406 C 323.628906 206.496094 322.015625 206.214844 320.394531 205.972656 C 318.773438 205.734375 317.144531 205.535156 315.515625 205.371094 C 313.882812 205.210938 312.25 205.089844 310.613281 205.011719 C 308.972656 204.929688 307.335938 204.890625 305.695312 204.890625 C 304.058594 204.890625 302.417969 204.929688 300.78125 205.011719 C 299.144531 205.089844 297.511719 205.210938 295.878906 205.371094 C 294.246094 205.535156 292.621094 205.734375 291 205.972656 C 289.378906 206.214844 287.761719 206.496094 286.15625 206.816406 C 284.546875 207.136719 282.949219 207.492188 281.359375 207.890625 C 279.769531 208.289062 278.1875 208.726562 276.621094 209.203125 C 275.050781 209.679688 273.496094 210.195312 271.949219 210.746094 C 270.40625 211.296875 268.878906 211.886719 267.363281 212.515625 C 265.847656 213.144531 264.351562 213.808594 262.871094 214.507812 C 261.386719 215.207031 259.921875 215.945312 258.476562 216.71875 C 257.03125 217.492188 255.605469 218.296875 254.199219 219.140625 C 252.792969 219.984375 251.410156 220.859375 250.046875 221.773438 C 248.683594 222.683594 247.34375 223.625 246.027344 224.601562 C 244.710938 225.578125 243.417969 226.585938 242.152344 227.628906 C 240.882812 228.667969 239.640625 229.738281 238.429688 230.839844 C 237.214844 231.941406 236.027344 233.070312 234.867188 234.230469 C 233.707031 235.386719 232.578125 236.574219 231.476562 237.789062 C 230.375 239.003906 229.304688 240.246094 228.265625 241.511719 C 227.226562 242.78125 226.21875 244.070312 225.242188 245.386719 C 224.265625 246.707031 223.320312 248.046875 222.410156 249.410156 C 221.5 250.769531 220.621094 252.15625 219.78125 253.5625 C 218.9375 254.96875 218.128906 256.394531 217.355469 257.839844 C 216.582031 259.285156 215.847656 260.75 215.144531 262.230469 C 214.445312 263.714844 213.78125 265.210938 213.152344 266.726562 C 212.527344 268.242188 211.9375 269.769531 211.382812 271.3125 C 210.832031 272.855469 210.316406 274.414062 209.839844 275.980469 C 209.367188 277.550781 208.929688 279.128906 208.53125 280.71875 C 208.132812 282.308594 207.773438 283.910156 207.453125 285.515625 C 207.132812 287.125 206.851562 288.738281 206.613281 290.359375 C 206.371094 291.984375 206.171875 293.609375 206.011719 295.242188 C 205.851562 296.871094 205.730469 298.507812 205.648438 300.144531 C 205.570312 301.78125 205.527344 303.417969 205.527344 305.058594 C 205.527344 306.699219 205.570312 308.335938 205.648438 309.972656 C 205.730469 311.609375 205.851562 313.246094 206.011719 314.875 C 206.171875 316.507812 206.371094 318.132812 206.613281 319.757812 C 206.851562 321.378906 207.132812 322.992188 207.453125 324.601562 C 207.773438 326.207031 208.132812 327.808594 208.53125 329.398438 C 208.929688 330.988281 209.367188 332.566406 209.839844 334.136719 C 210.316406 335.703125 210.832031 337.261719 211.382812 338.804688 C 211.9375 340.347656 212.527344 341.875 213.152344 343.390625 C 213.78125 344.90625 214.445312 346.402344 215.144531 347.886719 C 215.847656 349.367188 216.582031 350.832031 217.355469 352.277344 C 218.128906 353.722656 218.9375 355.148438 219.78125 356.554688 C 220.621094 357.960938 221.5 359.347656 222.410156 360.710938 C 223.320312 362.070312 224.265625 363.414062 225.242188 364.730469 C 226.21875 366.046875 227.226562 367.335938 228.265625 368.605469 C 229.304688 369.871094 230.375 371.113281 231.476562 372.328125 C 232.578125 373.542969 233.707031 374.730469 234.867188 375.886719 C 236.027344 377.046875 237.214844 378.175781 238.429688 379.277344 C 239.640625 380.378906 240.882812 381.449219 242.152344 382.488281 C 243.417969 383.53125 244.710938 384.539062 246.027344 385.515625 C 247.34375 386.492188 248.683594 387.433594 250.046875 388.34375 C 251.410156 389.257812 252.792969 390.132812 254.199219 390.976562 C 255.605469 391.820312 257.03125 392.625 258.476562 393.398438 C 259.921875 394.171875 261.386719 394.910156 262.867188 395.609375 C 264.351562 396.308594 265.847656 396.976562 267.363281 397.601562 C 268.878906 398.230469 270.40625 398.820312 271.949219 399.371094 C 273.496094 399.921875 275.050781 400.4375 276.617188 400.914062 C 278.1875 401.390625 279.765625 401.828125 281.355469 402.226562 C 282.949219 402.625 284.546875 402.980469 286.15625 403.300781 C 287.761719 403.621094 289.375 403.902344 291 404.144531 C 292.621094 404.382812 294.246094 404.582031 295.878906 404.746094 C 297.507812 404.90625 299.144531 405.027344 300.78125 405.105469 C 302.417969 405.1875 304.058594 405.226562 305.695312 405.226562 C 307.335938 405.226562 308.972656 405.183594 310.609375 405.101562 C 312.246094 405.019531 313.878906 404.898438 315.511719 404.734375 C 317.140625 404.570312 318.765625 404.371094 320.386719 404.128906 C 322.007812 403.886719 323.625 403.605469 325.230469 403.285156 C 326.835938 402.960938 328.433594 402.601562 330.023438 402.203125 C 331.613281 401.804688 333.191406 401.363281 334.761719 400.886719 C 336.328125 400.410156 337.882812 399.894531 339.425781 399.34375 C 340.96875 398.789062 342.496094 398.199219 344.011719 397.570312 C 345.523438 396.945312 347.023438 396.277344 348.503906 395.578125 C 349.984375 394.875 351.449219 394.140625 352.894531 393.367188 C 354.335938 392.59375 355.761719 391.785156 357.167969 390.941406 C 358.574219 390.097656 359.957031 389.222656 361.320312 388.308594 C 362.683594 387.398438 364.023438 386.457031 365.335938 385.480469 C 366.652344 384.503906 367.945312 383.496094 369.210938 382.453125 C 370.480469 381.414062 371.71875 380.34375 372.933594 379.242188 C 374.148438 378.144531 375.335938 377.011719 376.492188 375.855469 C 377.652344 374.695312 378.78125 373.507812 379.882812 372.296875 C 380.984375 371.082031 382.054688 369.839844 383.09375 368.574219 C 384.132812 367.308594 385.140625 366.015625 386.117188 364.699219 C 387.09375 363.382812 388.039062 362.042969 388.949219 360.683594 C 389.859375 359.320312 390.738281 357.9375 391.578125 356.53125 C 392.421875 355.125 393.230469 353.699219 394.003906 352.253906 C 394.777344 350.808594 395.515625 349.347656 396.214844 347.867188 C 396.917969 346.382812 397.582031 344.886719 398.210938 343.375 C 398.835938 341.859375 399.429688 340.332031 399.980469 338.789062 C 400.535156 337.246094 401.050781 335.691406 401.527344 334.121094 C 402.003906 332.554688 402.441406 330.976562 402.839844 329.386719 C 403.238281 327.796875 403.601562 326.199219 403.921875 324.59375 C 404.242188 322.984375 404.523438 321.371094 404.765625 319.75 C 405.007812 318.128906 405.210938 316.503906 405.371094 314.871094 C 405.535156 313.242188 405.65625 311.609375 405.738281 309.972656 C 405.820312 308.335938 405.863281 306.695312 405.863281 305.058594 Z M 405.863281 305.058594 " fill-opacity="1" fill-rule="nonzero"/><path fill="#1a1715" d="M 470.03125 292.855469 C 450.796875 290.714844 431.65625 291.332031 412.601562 294.699219 C 412.132812 294.832031 411.710938 295.050781 411.328125 295.351562 C 410.945312 295.648438 410.636719 296.011719 410.394531 296.433594 C 410.15625 296.855469 410.003906 297.304688 409.945312 297.789062 C 409.882812 298.269531 409.914062 298.742188 410.039062 299.210938 C 410.175781 299.675781 410.398438 300.097656 410.699219 300.472656 C 411 300.851562 411.359375 301.160156 411.78125 301.398438 C 412.199219 301.636719 412.648438 301.789062 413.128906 301.855469 C 413.609375 301.917969 414.082031 301.890625 414.550781 301.773438 C 432.96875 298.585938 451.460938 298.058594 470.03125 300.1875 C 470.515625 300.1875 470.980469 300.089844 471.429688 299.902344 C 471.878906 299.71875 472.273438 299.453125 472.617188 299.109375 C 472.960938 298.765625 473.226562 298.371094 473.414062 297.921875 C 473.597656 297.472656 473.695312 297.007812 473.699219 296.523438 C 473.6875 296.039062 473.585938 295.574219 473.394531 295.132812 C 473.207031 294.6875 472.941406 294.292969 472.597656 293.953125 C 472.257812 293.609375 471.863281 293.34375 471.421875 293.15625 C 470.976562 292.964844 470.511719 292.867188 470.03125 292.855469 Z M 470.03125 292.855469 " fill-opacity="1" fill-rule="nonzero"/><path fill="#1a1715" d="M 409.285156 314.53125 C 420.1875 317.207031 431.085938 319.882812 441.984375 322.558594 C 446.570312 323.683594 448.523438 316.613281 443.9375 315.484375 C 433.035156 312.808594 422.136719 310.132812 411.234375 307.457031 C 406.652344 306.332031 404.699219 313.402344 409.285156 314.53125 Z M 409.285156 314.53125 " fill-opacity="1" fill-rule="nonzero"/><path fill="#1a1715" d="M 384.074219 379.386719 C 391.679688 381.875 398.921875 385.171875 405.796875 389.277344 C 412.671875 393.378906 419.011719 398.1875 424.8125 403.707031 C 428.234375 406.957031 433.429688 401.78125 430 398.519531 C 423.734375 392.570312 416.894531 387.386719 409.472656 382.964844 C 402.050781 378.542969 394.234375 374.992188 386.023438 372.316406 C 381.523438 370.847656 379.597656 377.925781 384.074219 379.386719 Z M 384.074219 379.386719 " fill-opacity="1" fill-rule="nonzero"/><path fill="#1a1715" d="M 372.875 387.371094 C 379.601562 396.683594 386.324219 405.996094 393.050781 415.308594 C 393.304688 415.71875 393.628906 416.066406 394.015625 416.351562 C 394.402344 416.640625 394.832031 416.84375 395.296875 416.964844 C 395.765625 417.089844 396.238281 417.121094 396.714844 417.0625 C 397.195312 417 397.644531 416.855469 398.070312 416.625 C 398.484375 416.375 398.839844 416.058594 399.132812 415.671875 C 399.425781 415.285156 399.632812 414.855469 399.753906 414.386719 C 399.878906 413.914062 399.90625 413.441406 399.84375 412.960938 C 399.777344 412.480469 399.625 412.027344 399.382812 411.605469 C 392.660156 402.292969 385.933594 392.980469 379.207031 383.667969 C 378.953125 383.261719 378.628906 382.910156 378.242188 382.625 C 377.855469 382.339844 377.425781 382.136719 376.960938 382.011719 C 376.492188 381.890625 376.019531 381.859375 375.542969 381.917969 C 375.0625 381.976562 374.613281 382.121094 374.191406 382.355469 C 373.773438 382.601562 373.417969 382.917969 373.125 383.308594 C 372.835938 383.695312 372.625 384.125 372.503906 384.59375 C 372.378906 385.0625 372.351562 385.539062 372.414062 386.019531 C 372.480469 386.5 372.632812 386.949219 372.875 387.371094 Z M 372.875 387.371094 " fill-opacity="1" fill-rule="nonzero"/><path fill="#1a1715" d="M 310.21875 413.210938 C 313.191406 422.167969 315.410156 431.308594 316.875 440.628906 C 318.34375 449.953125 319.035156 459.332031 318.953125 468.769531 C 318.910156 473.488281 326.246094 473.492188 326.285156 468.769531 C 326.375 459 325.664062 449.292969 324.152344 439.644531 C 322.644531 429.996094 320.359375 420.535156 317.292969 411.261719 C 315.816406 406.800781 308.730469 408.714844 310.21875 413.210938 Z M 310.21875 413.210938 " fill-opacity="1" fill-rule="nonzero"/><path fill="#1a1715" d="M 293.375 410.78125 C 289.917969 417.628906 286.460938 424.472656 283.003906 431.320312 C 282.757812 431.738281 282.601562 432.191406 282.535156 432.671875 C 282.46875 433.15625 282.496094 433.632812 282.617188 434.101562 C 282.742188 434.574219 282.949219 435.003906 283.246094 435.390625 C 283.539062 435.78125 283.894531 436.097656 284.316406 436.34375 C 284.738281 436.585938 285.1875 436.742188 285.671875 436.808594 C 286.152344 436.875 286.628906 436.847656 287.101562 436.722656 C 287.570312 436.597656 288 436.390625 288.386719 436.09375 C 288.773438 435.800781 289.089844 435.441406 289.335938 435.023438 C 292.792969 428.175781 296.25 421.328125 299.710938 414.484375 C 299.957031 414.0625 300.113281 413.613281 300.179688 413.128906 C 300.246094 412.648438 300.214844 412.171875 300.09375 411.699219 C 299.96875 411.230469 299.761719 410.800781 299.46875 410.414062 C 299.171875 410.027344 298.816406 409.707031 298.394531 409.464844 C 297.976562 409.21875 297.523438 409.0625 297.042969 408.996094 C 296.558594 408.929688 296.082031 408.957031 295.613281 409.082031 C 295.140625 409.207031 294.714844 409.414062 294.324219 409.710938 C 293.9375 410.003906 293.621094 410.363281 293.375 410.78125 Z M 293.375 410.78125 " fill-opacity="1" fill-rule="nonzero"/><path fill="#1a1715" d="M 239.324219 388.730469 C 232.640625 397.402344 225.269531 405.441406 217.203125 412.839844 C 209.132812 420.242188 200.496094 426.902344 191.28125 432.8125 C 187.324219 435.359375 190.996094 441.710938 194.980469 439.148438 C 204.710938 432.878906 213.832031 425.824219 222.339844 417.980469 C 230.847656 410.136719 238.621094 401.621094 245.65625 392.433594 C 245.898438 392.011719 246.054688 391.5625 246.117188 391.078125 C 246.183594 390.597656 246.152344 390.121094 246.03125 389.652344 C 245.90625 389.183594 245.699219 388.753906 245.40625 388.367188 C 245.113281 387.980469 244.757812 387.660156 244.339844 387.414062 C 243.917969 387.179688 243.46875 387.035156 242.988281 386.976562 C 242.507812 386.914062 242.035156 386.945312 241.570312 387.070312 C 241.101562 387.191406 240.675781 387.394531 240.285156 387.683594 C 239.898438 387.96875 239.578125 388.320312 239.324219 388.730469 Z M 239.324219 388.730469 " fill-opacity="1" fill-rule="nonzero"/><path fill="#1a1715" d="M 224.503906 372.574219 C 215.195312 377.648438 205.890625 382.722656 196.582031 387.796875 C 192.433594 390.058594 196.132812 396.394531 200.28125 394.128906 C 209.589844 389.054688 218.898438 383.980469 228.207031 378.90625 C 232.351562 376.648438 228.65625 370.3125 224.503906 372.574219 Z M 224.503906 372.574219 " fill-opacity="1" fill-rule="nonzero"/><path fill="#1a1715" d="M 198.035156 318.835938 C 184.585938 320.835938 171.070312 321.417969 157.496094 320.59375 C 143.921875 319.765625 130.582031 317.546875 117.472656 313.929688 C 112.914062 312.675781 110.96875 319.75 115.523438 321.003906 C 129.273438 324.761719 143.265625 327.054688 157.496094 327.878906 C 171.730469 328.707031 185.890625 328.050781 199.984375 325.910156 C 200.453125 325.777344 200.878906 325.5625 201.257812 325.261719 C 201.640625 324.960938 201.953125 324.601562 202.191406 324.179688 C 202.433594 323.757812 202.582031 323.304688 202.644531 322.824219 C 202.707031 322.34375 202.671875 321.867188 202.546875 321.398438 C 202.40625 320.9375 202.1875 320.515625 201.886719 320.140625 C 201.585938 319.761719 201.222656 319.453125 200.804688 319.214844 C 200.382812 318.976562 199.933594 318.824219 199.457031 318.757812 C 198.976562 318.695312 198.503906 318.71875 198.035156 318.835938 Z M 198.035156 318.835938 " fill-opacity="1" fill-rule="nonzero"/><path fill="#1a1715" d="M 197.285156 295.261719 C 191.328125 295.410156 185.457031 294.75 179.679688 293.292969 C 173.902344 291.832031 168.425781 289.625 163.25 286.664062 C 159.148438 284.316406 155.449219 290.652344 159.546875 293 C 165.285156 296.28125 171.355469 298.738281 177.761719 300.367188 C 184.167969 302 190.675781 302.742188 197.285156 302.597656 C 201.996094 302.488281 202.015625 295.152344 197.285156 295.261719 Z M 197.285156 295.261719 " fill-opacity="1" fill-rule="nonzero"/><path fill="#1a1715" d="M 226.925781 232.800781 C 217.4375 228.191406 208.460938 222.746094 199.988281 216.460938 C 191.519531 210.179688 183.703125 203.167969 176.542969 195.425781 C 172.558594 191.125 168.816406 186.621094 165.316406 181.914062 C 165.058594 181.507812 164.738281 181.160156 164.347656 180.871094 C 163.960938 180.585938 163.535156 180.382812 163.066406 180.261719 C 162.601562 180.136719 162.128906 180.105469 161.648438 180.164062 C 161.171875 180.222656 160.722656 180.367188 160.296875 180.597656 C 159.878906 180.847656 159.527344 181.164062 159.234375 181.550781 C 158.941406 181.941406 158.734375 182.367188 158.609375 182.839844 C 158.488281 183.308594 158.457031 183.78125 158.523438 184.265625 C 158.585938 184.746094 158.738281 185.195312 158.980469 185.617188 C 165.535156 194.472656 172.851562 202.644531 180.929688 210.132812 C 189.007812 217.625 197.710938 224.300781 207.035156 230.167969 C 212.269531 233.449219 217.664062 236.4375 223.222656 239.132812 C 223.644531 239.367188 224.09375 239.511719 224.574219 239.574219 C 225.054688 239.632812 225.527344 239.601562 225.992188 239.476562 C 226.460938 239.355469 226.886719 239.152344 227.277344 238.863281 C 227.664062 238.578125 227.984375 238.230469 228.238281 237.816406 C 228.480469 237.398438 228.632812 236.945312 228.695312 236.464844 C 228.761719 235.984375 228.730469 235.507812 228.609375 235.039062 C 228.484375 234.570312 228.277344 234.144531 227.984375 233.753906 C 227.695312 233.367188 227.339844 233.050781 226.925781 232.800781 Z M 226.925781 232.800781 " fill-opacity="1" fill-rule="nonzero"/><path fill="#1a1715" d="M 237.039062 223.671875 C 229.9375 214.433594 222.839844 205.195312 215.738281 195.957031 C 215.484375 195.550781 215.160156 195.203125 214.773438 194.917969 C 214.382812 194.632812 213.957031 194.429688 213.492188 194.304688 C 213.023438 194.183594 212.554688 194.152344 212.074219 194.210938 C 211.597656 194.265625 211.144531 194.410156 210.722656 194.640625 C 209.179688 195.542969 208.191406 198.078125 209.40625 199.660156 C 216.507812 208.898438 223.605469 218.136719 230.703125 227.375 C 230.960938 227.78125 231.285156 228.128906 231.671875 228.414062 C 232.058594 228.699219 232.488281 228.902344 232.953125 229.023438 C 233.417969 229.148438 233.890625 229.179688 234.371094 229.121094 C 234.847656 229.0625 235.300781 228.917969 235.722656 228.6875 C 237.265625 227.785156 238.253906 225.253906 237.039062 223.671875 Z M 237.039062 223.671875 " fill-opacity="1" fill-rule="nonzero"/><path fill="#1a1715" d="M 296.304688 199.132812 C 294.316406 194.007812 292.683594 188.773438 291.402344 183.425781 C 290.125 178.078125 289.214844 172.667969 288.675781 167.199219 C 288.132812 161.726562 287.964844 156.246094 288.171875 150.753906 C 288.375 145.257812 288.949219 139.804688 289.898438 134.390625 C 291.015625 128.171875 292.601562 122.074219 294.65625 116.101562 C 294.789062 115.632812 294.820312 115.15625 294.761719 114.675781 C 294.703125 114.191406 294.550781 113.738281 294.3125 113.316406 C 294.070312 112.894531 293.757812 112.53125 293.375 112.234375 C 292.992188 111.933594 292.566406 111.71875 292.097656 111.589844 C 291.628906 111.460938 291.152344 111.425781 290.667969 111.488281 C 290.1875 111.546875 289.734375 111.699219 289.3125 111.9375 C 288.886719 112.179688 288.527344 112.488281 288.226562 112.875 C 287.929688 113.257812 287.714844 113.683594 287.585938 114.152344 C 285.730469 119.617188 284.253906 125.183594 283.148438 130.847656 C 282.042969 136.511719 281.324219 142.226562 280.992188 147.988281 C 280.65625 153.75 280.710938 159.507812 281.152344 165.261719 C 281.59375 171.015625 282.421875 176.714844 283.628906 182.355469 C 285 188.746094 286.867188 194.988281 289.234375 201.082031 C 289.375 201.542969 289.597656 201.960938 289.898438 202.339844 C 290.199219 202.714844 290.558594 203.023438 290.980469 203.261719 C 291.398438 203.496094 291.847656 203.648438 292.324219 203.714844 C 292.804688 203.78125 293.277344 203.757812 293.746094 203.644531 C 294.210938 203.511719 294.636719 203.292969 295.019531 202.996094 C 295.398438 202.695312 295.710938 202.335938 295.949219 201.914062 C 296.191406 201.492188 296.339844 201.039062 296.402344 200.558594 C 296.464844 200.074219 296.433594 199.601562 296.304688 199.132812 Z M 296.304688 199.132812 " fill-opacity="1" fill-rule="nonzero"/><path fill="#1a1715" d="M 318.226562 199.136719 C 316.933594 190.351562 316.414062 181.519531 316.664062 172.640625 C 316.914062 163.761719 317.929688 154.976562 319.71875 146.273438 C 319.835938 145.808594 319.859375 145.332031 319.796875 144.855469 C 319.730469 144.375 319.578125 143.925781 319.339844 143.507812 C 319.101562 143.085938 318.792969 142.726562 318.414062 142.425781 C 318.039062 142.125 317.617188 141.902344 317.15625 141.765625 C 316.6875 141.640625 316.210938 141.609375 315.730469 141.671875 C 315.25 141.734375 314.796875 141.882812 314.375 142.121094 C 313.953125 142.363281 313.59375 142.671875 313.292969 143.054688 C 312.992188 143.433594 312.777344 143.859375 312.644531 144.324219 C 310.738281 153.667969 309.65625 163.105469 309.40625 172.640625 C 309.15625 182.171875 309.738281 191.65625 311.152344 201.085938 C 311.285156 201.554688 311.5 201.980469 311.800781 202.359375 C 312.097656 202.742188 312.460938 203.054688 312.882812 203.292969 C 313.304688 203.53125 313.757812 203.683594 314.238281 203.746094 C 314.71875 203.804688 315.195312 203.773438 315.664062 203.648438 C 316.125 203.507812 316.546875 203.289062 316.921875 202.988281 C 317.300781 202.683594 317.609375 202.324219 317.847656 201.90625 C 318.085938 201.484375 318.238281 201.035156 318.300781 200.558594 C 318.367188 200.078125 318.34375 199.605469 318.226562 199.136719 Z M 318.226562 199.136719 " fill-opacity="1" fill-rule="nonzero"/><path fill="#1a1715" d="M 376.546875 225.46875 C 379.023438 220.589844 381.820312 215.902344 384.941406 211.410156 C 388.0625 206.914062 391.476562 202.65625 395.183594 198.632812 C 398.886719 194.609375 402.851562 190.855469 407.074219 187.378906 C 411.296875 183.898438 415.738281 180.726562 420.394531 177.859375 C 424.414062 175.394531 420.734375 169.050781 416.695312 171.527344 C 411.761719 174.550781 407.0625 177.898438 402.589844 181.566406 C 398.121094 185.238281 393.917969 189.195312 389.992188 193.441406 C 386.0625 197.6875 382.441406 202.183594 379.132812 206.925781 C 375.820312 211.667969 372.847656 216.613281 370.214844 221.765625 C 368.082031 225.964844 374.40625 229.679688 376.546875 225.46875 Z M 376.546875 225.46875 " fill-opacity="1" fill-rule="nonzero"/><path fill="#1a1715" d="M 390.722656 240.246094 C 401.011719 234.4375 411.304688 228.625 421.59375 222.8125 C 425.703125 220.492188 422.011719 214.152344 417.890625 216.480469 C 407.601562 222.289062 397.3125 228.101562 387.019531 233.914062 C 382.910156 236.234375 386.605469 242.574219 390.722656 240.246094 Z M 390.722656 240.246094 " fill-opacity="1" fill-rule="nonzero"/></svg>